<svg xmlns="http://www.w3.org/2000/svg" viewBox="0 0 64 64" fill="none">
  <defs>
    <linearGradient id="g" x1="0" y1="0" x2="64" y2="64" gradientUnits="userSpaceOnUse">
      <stop offset="0" stop-color="#2A7DE1"/>
      <stop offset="1" stop-color="#6BA7EA"/>
    </linearGradient>
  </defs>
  <path d="M20 10c6-4 18-4 24 0 7 5 8 16 2 22-2 3-3 6-4 10-1 4-2 10-6 10s-4-6-7-6-3 6-7 6-5-6-6-10c-1-4-2-7-4-10-6-6-5-17 2-22z" fill="url(#g)"/>
  <path d="M20 10c6-4 18-4 24 0 7 5 8 16 2 22-2 3-3 6-4 10-1 4-2 10-6 10s-4-6-7-6-3 6-7 6-5-6-6-10c-1-4-2-7-4-10-6-6-5-17 2-22z" fill="#fff" fill-opacity=".3"/>
</svg>
